<svg xmlns="http://www.w3.org/2000/svg" xmlns:xlink="http://www.w3.org/1999/xlink" width="1080" zoomAndPan="magnify" viewBox="0 0 810 809.999993" height="1080" preserveAspectRatio="xMidYMid meet" version="1.0"><rect x="-81" width="972" fill="#ffffff" y="-80.999999" height="971.999992" fill-opacity="1"/><rect x="-81" width="972" fill="#000000" y="-80.999999" height="971.999992" fill-opacity="1"/><rect x="-81" width="972" fill="#ffffff" y="-80.999999" height="971.999992" fill-opacity="1"/><rect x="-81" width="972" fill="#000000" y="-80.999999" height="971.999992" fill-opacity="1"/><path fill="#ffde59" d="M 374.042969 701.625 C 371.433594 701.625 368.917969 701.148438 369.148438 699.929688 C 369.527344 697.699219 365.015625 696.328125 366.9375 695.054688 C 368.882812 693.777344 367.320312 692.558594 368.15625 691.203125 C 368.273438 690.996094 368.539062 690.917969 368.882812 690.917969 C 370.863281 690.917969 375.890625 693.816406 377.207031 695.625 C 378.75 697.738281 384.386719 698.519531 384.519531 700.863281 C 384.519531 700.863281 382.902344 700.347656 381.339844 700.347656 C 380.597656 700.347656 379.855469 700.464844 379.300781 700.804688 C 378.519531 701.28125 376.234375 701.625 374.042969 701.625 " fill-opacity="1" fill-rule="nonzero"/><path fill="#ffde59" d="M 395.988281 465.882812 C 394.75 465.882812 393.644531 465.519531 393.378906 464.53125 C 392.882812 462.796875 393.207031 462.128906 392.941406 462.128906 C 392.847656 462.128906 392.675781 462.207031 392.390625 462.359375 C 392.3125 462.398438 392.253906 462.398438 392.199219 462.398438 C 391.628906 462.398438 394.390625 458.949219 394.390625 458.949219 C 394.390625 458.949219 395.476562 458.777344 396.714844 458.777344 C 398.066406 458.777344 399.609375 458.988281 400.027344 459.824219 C 400.867188 461.445312 400.847656 463.234375 400.007812 464.511719 C 399.53125 465.214844 397.648438 465.882812 395.988281 465.882812 " fill-opacity="1" fill-rule="nonzero"/><path fill="#ffde59" d="M 405.6875 233.742188 C 399.132812 233.742188 390.40625 231.492188 390.40625 231.492188 L 389.835938 231.492188 C 389.835938 231.492188 399.4375 217.472656 404.941406 217.378906 C 403.039062 222.214844 406.714844 225.472656 409.6875 225.472656 C 410.046875 225.472656 410.390625 225.4375 410.695312 225.339844 C 410.695312 225.339844 410.960938 225.167969 411.285156 225.167969 C 411.953125 225.167969 412.960938 225.914062 412.792969 230.445312 C 412.695312 232.960938 409.570312 233.742188 405.6875 233.742188 " fill-opacity="1" fill-rule="nonzero"/><path fill="#ffde59" d="M 357.335938 169.417969 C 357.261719 169.417969 357.203125 169.402344 357.128906 169.371094 C 356.367188 169.074219 352.746094 166.359375 350.746094 166.359375 C 350.058594 166.359375 349.546875 166.695312 349.449219 167.578125 C 349.449219 167.578125 349.355469 169.058594 348.210938 169.253906 C 347.945312 169.296875 347.507812 169.34375 347.03125 169.34375 C 345.375 169.34375 343.164062 168.800781 345.355469 165.75 C 347.792969 162.347656 349.011719 161.148438 350.652344 161.148438 C 350.917969 161.148438 351.183594 161.179688 351.46875 161.230469 C 353.601562 161.648438 358.574219 163.152344 358.480469 165.207031 C 358.386719 167.101562 358.175781 169.417969 357.335938 169.417969 " fill-opacity="1" fill-rule="nonzero"/><path fill="#ffde59" d="M 330.894531 153.746094 C 330.722656 153.746094 330.648438 153.679688 330.6875 153.515625 C 330.914062 152.234375 327.011719 152.472656 328.648438 150.589844 C 330.25 148.703125 331.753906 148.1875 331.753906 148.1875 C 331.886719 148.15625 332.113281 148.152344 332.363281 148.152344 C 332.859375 148.152344 333.523438 148.195312 334.117188 148.238281 C 334.707031 148.285156 335.21875 148.328125 335.449219 148.328125 C 335.507812 148.328125 335.542969 148.320312 335.5625 148.3125 L 337.257812 148.5 C 337.183594 149.222656 337.144531 149.585938 337.066406 150.316406 C 337.066406 150.316406 332 153.746094 330.894531 153.746094 " fill-opacity="1" fill-rule="nonzero"/><path fill="#ffde59" d="M 299.042969 158.03125 C 293.425781 158.03125 289.882812 155.136719 289.882812 155.136719 C 293.976562 154.171875 296.054688 153.710938 300.226562 152.835938 C 300.320312 152.242188 300.378906 151.945312 300.492188 151.347656 C 297.0625 152.070312 295.347656 152.449219 291.957031 153.246094 C 292.109375 152.488281 292.1875 152.109375 292.339844 151.355469 C 292.339844 151.355469 295.597656 151.101562 296.109375 150.285156 C 296.625 149.460938 296.550781 148.851562 293.273438 148.546875 C 293.195312 148.539062 293.140625 148.539062 293.0625 148.539062 C 289.691406 148.539062 283.15625 154.914062 283.15625 154.914062 C 282.375 153.394531 281.976562 152.644531 281.214844 151.164062 C 291.921875 141.289062 298.511719 138.773438 302.453125 138.773438 C 306.53125 138.773438 307.769531 141.488281 307.769531 141.488281 C 310.265625 141.789062 311.523438 141.945312 314.054688 142.300781 C 315.503906 141.199219 316.226562 140.65625 317.695312 139.570312 C 318.09375 140.984375 318.304688 141.699219 318.722656 143.128906 C 320.246094 141.371094 320.988281 140.484375 322.496094 138.742188 C 324.152344 138.46875 324.992188 138.328125 326.667969 138.074219 C 326.667969 138.074219 322.09375 145.105469 323.332031 145.105469 C 323.351562 145.105469 323.371094 145.105469 323.410156 145.097656 C 323.464844 145.089844 323.503906 145.082031 323.582031 145.082031 C 325.007812 145.082031 326.875 147.570312 326.875 147.570312 C 326.875 147.570312 323.636719 149.9375 319.847656 152.5625 C 318.476562 153.515625 317.371094 153.804688 316.34375 153.804688 C 315.542969 153.804688 314.78125 153.628906 313.980469 153.441406 C 313.179688 153.261719 312.324219 153.082031 311.351562 153.082031 C 311.101562 153.082031 310.855469 153.097656 310.609375 153.121094 C 306.914062 153.464844 308.589844 156.78125 301.539062 157.835938 C 300.683594 157.972656 299.84375 158.03125 299.042969 158.03125 " fill-opacity="1" fill-rule="nonzero"/><path fill="#ffde59" d="M 191.851562 225.320312 C 191.753906 225.320312 191.699219 225.265625 191.699219 225.113281 C 191.621094 224.179688 192.859375 222.710938 193.585938 221.757812 C 194.078125 221.148438 195.03125 220.425781 195.375 220.425781 C 195.566406 220.425781 195.605469 220.636719 195.300781 221.148438 C 195.011719 221.664062 194.996094 221.816406 195.089844 221.816406 C 195.148438 221.816406 195.242188 221.757812 195.355469 221.722656 C 195.46875 221.683594 195.605469 221.625 195.738281 221.625 C 195.910156 221.625 196.042969 221.722656 196.117188 222.007812 C 196.402344 223.054688 196.726562 223.511719 195.851562 223.96875 C 195.660156 224.0625 195.46875 224.101562 195.261719 224.101562 C 194.480469 224.101562 193.660156 223.550781 193.660156 223.550781 C 193.660156 223.550781 192.308594 225.320312 191.851562 225.320312 " fill-opacity="1" fill-rule="nonzero"/><path fill="#ffde59" d="M 190.433594 230.636719 C 190.433594 230.636719 190.386719 227.4375 193.8125 226.140625 C 194.175781 226.007812 194.441406 225.949219 194.632812 225.949219 C 196.308594 225.949219 192.347656 230.558594 192.347656 230.558594 C 191.566406 230.597656 191.183594 230.597656 190.433594 230.636719 " fill-opacity="1" fill-rule="nonzero"/><path fill="#ffde59" d="M 187.574219 252.164062 C 187.574219 252.164062 183.972656 251.589844 183.921875 248.675781 C 183.921875 248.675781 185.320312 244.007812 188.847656 244.007812 C 189.0625 244.007812 189.285156 244.027344 189.523438 244.066406 C 193.546875 244.714844 190.992188 250.582031 191.375 251.171875 C 191.753906 251.761719 187.574219 252.164062 187.574219 252.164062 " fill-opacity="1" fill-rule="nonzero"/><path fill="#ffde59" d="M 338.496094 142.511719 C 337.527344 142.511719 336.363281 142.292969 336.363281 142.292969 C 336.363281 142.292969 336.953125 140.640625 333.066406 139.308594 C 332.992188 138.640625 332.933594 138.3125 332.839844 137.652344 C 332.972656 137.578125 333.886719 137.5625 334.761719 137.5625 C 335.675781 137.5625 336.59375 137.582031 336.59375 137.582031 C 336.59375 137.582031 337.050781 138.585938 337.925781 138.585938 C 338.019531 138.585938 338.136719 138.574219 338.230469 138.542969 C 339.316406 138.253906 339.90625 135.261719 339.90625 135.261719 C 340.765625 135.148438 341.203125 135.105469 342.058594 135 C 344.460938 134.113281 345.679688 133.675781 348.078125 132.820312 C 348.078125 132.820312 347.375 139.027344 342.496094 140.140625 C 340.554688 140.351562 340.15625 141.476562 339.773438 142.167969 C 339.621094 142.429688 339.085938 142.511719 338.496094 142.511719 " fill-opacity="1" fill-rule="nonzero"/><path fill="#ffde59" d="M 349.90625 137.992188 C 349.640625 137.992188 349.335938 137.96875 349.011719 137.925781 C 349.011719 137.925781 348.039062 134.441406 353.753906 132.464844 C 356.269531 131.59375 357.699219 131.347656 358.5 131.347656 C 359.527344 131.347656 359.546875 131.75 359.546875 131.75 C 359.011719 133.296875 358.746094 134.070312 358.214844 135.625 C 358.214844 135.625 356.15625 134.957031 354.671875 134.957031 C 354.136719 134.957031 353.679688 135.046875 353.414062 135.285156 C 352.519531 136.089844 352.613281 137.992188 349.90625 137.992188 " fill-opacity="1" fill-rule="nonzero"/><path fill="#ffde59" d="M 393.855469 173.429688 C 392.066406 173.429688 388.710938 172.921875 388.578125 172.871094 C 388.425781 172.820312 380.3125 169.289062 379.890625 163.320312 C 379.890625 163.417969 379.683594 163.457031 379.359375 163.457031 C 378.195312 163.457031 375.585938 162.980469 375.585938 162.980469 C 375.585938 162.980469 374.292969 165.140625 371.644531 165.140625 C 371.261719 165.140625 370.863281 165.085938 370.425781 164.988281 C 367.015625 164.199219 368.386719 160.570312 375.910156 160.570312 C 376.101562 160.570312 376.273438 160.578125 376.464844 160.585938 C 380.597656 160.675781 380.597656 160.695312 380.597656 160.695312 C 381.835938 158.300781 382.503906 156.980469 386.828125 155.355469 C 386.902344 155.324219 386.980469 155.316406 387.074219 155.316406 C 388.3125 155.316406 391.226562 157.695312 391.226562 157.695312 C 392.597656 156.921875 393.265625 156.542969 394.617188 155.777344 C 394.617188 155.777344 384.445312 146.558594 382.941406 143.246094 C 382.503906 142.292969 381.949219 141.9375 381.359375 141.9375 C 379.875 141.9375 378.121094 144.109375 377.246094 144.757812 C 376.710938 145.144531 375.988281 145.261719 375.339844 145.261719 C 374.480469 145.261719 373.738281 145.0625 373.738281 145.0625 C 373.738281 145.0625 369.738281 143.640625 367.492188 143.640625 C 366.917969 143.640625 366.480469 143.730469 366.214844 143.953125 C 365.679688 144.40625 364.671875 144.578125 363.644531 144.578125 C 362.214844 144.578125 360.785156 144.25 360.726562 143.960938 C 360.59375 143.476562 359.089844 139.902344 359.089844 139.902344 C 359.089844 139.902344 364.460938 132.085938 371.089844 132.085938 C 371.566406 132.085938 372.0625 132.128906 372.558594 132.21875 C 372.558594 132.777344 372.539062 133.058594 372.519531 133.609375 C 373.1875 133.839844 373.53125 133.949219 374.195312 134.183594 C 374.195312 134.183594 374.804688 134.40625 375.492188 134.40625 C 376.292969 134.40625 377.226562 134.09375 377.433594 132.738281 C 378.941406 132.6875 379.703125 132.664062 381.207031 132.628906 C 383.988281 134.746094 385.398438 135.828125 388.253906 138.015625 C 390.179688 137.265625 391.167969 136.890625 393.074219 136.167969 C 393.074219 136.167969 395.609375 141.230469 404.542969 144.222656 C 404.753906 145.359375 404.867188 145.925781 405.074219 147.0625 C 405.074219 147.0625 408.21875 153.878906 411.457031 155.40625 C 414.695312 156.929688 408.144531 161.535156 408.144531 161.535156 C 405.152344 159.921875 403.667969 159.132812 400.714844 157.570312 C 400.714844 157.570312 400.523438 157.53125 400.277344 157.53125 C 399.4375 157.53125 397.800781 157.917969 399 161.195312 C 400.5625 165.488281 400.085938 167.488281 398.867188 169.238281 C 398.695312 169.46875 398.523438 169.566406 398.3125 169.566406 C 397.703125 169.566406 396.902344 168.671875 396.027344 167.78125 C 395.152344 166.886719 394.160156 165.996094 393.1875 165.996094 C 393.019531 165.996094 392.847656 166.015625 392.675781 166.078125 C 390.21875 166.894531 391.914062 169.207031 394.597656 170.175781 C 397.265625 171.136719 395.53125 172.839844 394.847656 173.292969 C 394.714844 173.390625 394.332031 173.429688 393.855469 173.429688 " fill-opacity="1" fill-rule="nonzero"/><path fill="#ffde59" d="M 387.417969 130.984375 C 386.558594 130.976562 385.929688 130.976562 385.285156 130.976562 C 384.636719 130.976562 384.007812 130.976562 383.148438 130.984375 C 383.167969 130.542969 383.1875 130.328125 383.207031 129.898438 L 380.617188 129.898438 C 378.007812 129.898438 376.0625 129.917969 372.9375 129.992188 C 372.902344 129.644531 372.882812 129.472656 372.84375 129.128906 C 372.84375 129.128906 364.691406 129.578125 364.460938 129.597656 C 364.460938 129.507812 364.652344 124.582031 369.511719 124.582031 C 371.300781 124.582031 373.71875 125.253906 376.996094 127.074219 C 382.710938 126.808594 385.605469 126.734375 391.304688 126.6875 C 391.304688 126.6875 392.484375 128.527344 387.417969 130.984375 " fill-opacity="1" fill-rule="nonzero"/><path fill="#ffde59" d="M 382.121094 117.542969 C 382.121094 117.542969 373.988281 116.65625 373.890625 116.351562 C 372.613281 112.707031 380.234375 110.125 383.320312 110.125 C 383.570312 110.125 383.777344 110.136719 383.96875 110.175781 C 386.425781 110.628906 388.710938 114.417969 385.96875 114.523438 C 383.1875 114.625 382.121094 117.542969 382.121094 117.542969 " fill-opacity="1" fill-rule="nonzero"/><path fill="#ffde59" d="M 394.808594 126.199219 C 393.949219 126.199219 393.054688 125.550781 393.054688 125.550781 C 393.054688 125.550781 389.777344 122.753906 389.167969 122.753906 C 389.152344 122.753906 389.132812 122.757812 389.132812 122.757812 C 388.65625 122.914062 386.0625 123.117188 386.0625 123.117188 C 386.0625 123.117188 383.246094 123.898438 381.816406 123.898438 C 381.53125 123.898438 381.28125 123.863281 381.128906 123.78125 C 380.332031 123.308594 377.511719 120.429688 377.511719 120.429688 C 380.484375 120.363281 382.539062 120.335938 384.84375 120.335938 C 386.160156 120.335938 387.570312 120.34375 389.304688 120.363281 C 389.304688 119.722656 389.304688 119.414062 389.285156 118.773438 C 388.273438 118.765625 387.777344 118.757812 386.789062 118.75 C 386.960938 117.992188 387.054688 117.609375 387.226562 116.851562 C 388.636719 116.859375 389.339844 116.867188 390.75 116.878906 C 390.75 117.476562 390.75 117.773438 390.769531 118.371094 C 391.742188 118.386719 392.238281 118.390625 393.207031 118.414062 C 393.207031 118.414062 389.246094 113.875 391.761719 113.875 L 391.796875 113.875 C 392.027344 113.875 405.550781 114.425781 407.304688 114.546875 L 407.496094 114.550781 C 408.316406 113.75 408.734375 113.339844 409.554688 112.542969 C 403.246094 111.730469 400.066406 111.402344 393.683594 110.90625 C 393.664062 110.050781 393.644531 109.625 393.644531 108.769531 C 399.78125 108.511719 404.847656 108.367188 409.535156 108.367188 C 418.714844 108.367188 426.410156 108.902344 437.707031 110.117188 L 437.804688 110.132812 L 437.804688 110.140625 C 438.300781 116.054688 423.667969 114.203125 413.894531 116.484375 C 413.894531 116.484375 396.828125 123.183594 396.105469 125.203125 C 395.835938 125.960938 395.324219 126.199219 394.808594 126.199219 " fill-opacity="1" fill-rule="nonzero"/><path fill="#ffde59" d="M 451.558594 183.527344 C 449.652344 183.527344 447.632812 182.773438 446.261719 180.378906 C 442.984375 174.707031 436.566406 178.207031 439.136719 166.253906 C 441.710938 154.296875 435.804688 157.234375 439.367188 155.480469 C 442.910156 153.722656 444.015625 142.457031 444.015625 142.457031 L 441.460938 140.925781 C 441.460938 140.925781 439.632812 128.535156 433.824219 128.308594 C 414.675781 127.574219 416.410156 119.113281 416.410156 119.113281 C 416.296875 118.46875 417.761719 118.398438 420.144531 118.398438 L 421.019531 118.398438 C 421.324219 118.40625 421.648438 118.40625 421.972656 118.40625 C 427.097656 118.40625 434.890625 118.199219 441.539062 114.566406 C 442.261719 114.359375 443.0625 114.269531 443.898438 114.269531 C 450.148438 114.269531 458.703125 119.5 462.417969 120.105469 C 473.75 121.464844 479.238281 122.445312 489.828125 125.007812 C 497.90625 128.339844 501.886719 130.132812 509.71875 133.972656 C 509.71875 133.972656 513.28125 136.199219 515.792969 138.714844 C 518.289062 141.238281 524.003906 142.464844 524.003906 142.464844 C 524.003906 142.464844 524.519531 144.035156 522.804688 144.035156 C 522.15625 144.035156 521.183594 143.804688 519.738281 143.179688 C 516.136719 141.617188 515.507812 141.371094 515.449219 141.371094 C 515.433594 141.371094 515.527344 141.421875 515.527344 141.421875 C 514.992188 142.667969 514.707031 143.296875 514.117188 144.601562 C 514.117188 144.601562 515.621094 145.625 515.488281 146.625 C 515.355469 147.613281 514.289062 151.847656 513.449219 152.734375 C 513.011719 153.203125 510.269531 153.484375 507.640625 153.484375 C 506.003906 153.484375 504.402344 153.375 503.429688 153.121094 C 505.601562 154.824219 511.164062 159.953125 512.003906 161.484375 C 512.363281 162.175781 512.003906 162.40625 511.394531 162.40625 C 510.230469 162.40625 508.136719 161.617188 508.136719 161.617188 C 508.136719 161.617188 503.296875 155.910156 502.25 155.910156 C 502.210938 155.910156 502.171875 155.925781 502.136719 155.941406 C 501.375 156.453125 502.613281 157.667969 502.613281 158.605469 C 502.613281 159.097656 502.097656 159.164062 501.5625 159.164062 C 501.449219 159.164062 501.355469 159.15625 501.257812 159.15625 L 500.992188 159.15625 C 500.707031 159.15625 500.476562 159.171875 500.382812 159.28125 C 500.078125 159.617188 502.269531 161.292969 503.164062 161.292969 C 503.222656 161.292969 503.277344 161.285156 503.316406 161.269531 C 503.46875 161.21875 503.699219 161.203125 503.984375 161.203125 C 505.105469 161.203125 506.953125 161.53125 506.953125 161.53125 C 506.953125 161.53125 509.488281 164.347656 509.296875 164.855469 C 509.242188 164.996094 508.308594 165.050781 506.972656 165.050781 C 503.546875 165.050781 497.390625 164.707031 496.132812 164.664062 C 494.363281 164.59375 491.449219 163.761719 491.011719 162.265625 C 490.953125 162.050781 490.707031 161.953125 490.324219 161.953125 C 488.058594 161.953125 480.933594 165.363281 480.113281 166.871094 C 479.445312 168.078125 474.53125 168.464844 470.96875 168.464844 C 469.292969 168.464844 467.921875 168.382812 467.40625 168.257812 C 467.386719 168.25 467.371094 168.25 467.351562 168.25 C 465.578125 168.25 457.519531 180.867188 456.910156 181.664062 C 456.566406 182.132812 454.167969 183.527344 451.558594 183.527344 " fill-opacity="1" fill-rule="nonzero"/><path fill="#ffde59" d="M 521.488281 186.949219 C 520.765625 186.949219 520.234375 186.886719 520.042969 186.761719 C 519.070312 186.101562 511.394531 183.117188 510.230469 181.226562 C 510.175781 180.996094 510.136719 180.882812 510.097656 180.660156 C 510.191406 180.207031 511.734375 176.992188 514.574219 176.992188 C 514.859375 176.992188 515.128906 177.023438 515.433594 177.089844 C 518.480469 177.753906 521.605469 178.792969 523.015625 178.792969 C 523.167969 178.792969 523.300781 178.777344 523.394531 178.757812 C 523.453125 178.742188 523.488281 178.734375 523.566406 178.734375 C 524.9375 178.734375 529.394531 181.5 530.613281 183.839844 C 531.664062 185.808594 524.671875 186.949219 521.488281 186.949219 " fill-opacity="1" fill-rule="nonzero"/><path fill="#ffde59" d="M 288.796875 342.019531 C 287.785156 340.097656 287.289062 339.144531 286.300781 337.238281 C 286.699219 336.117188 286.890625 335.5625 287.273438 334.4375 C 288.28125 334.402344 288.777344 334.363281 289.785156 334.324219 C 289.824219 333.46875 289.84375 333.03125 289.882812 332.152344 C 289.023438 332.191406 288.605469 332.210938 287.75 332.25 L 288.035156 327.484375 C 291.140625 327.351562 292.683594 327.277344 295.824219 327.164062 C 296.074219 329.390625 296.207031 330.515625 296.453125 332.78125 C 294.910156 332.972656 294.128906 333.066406 292.585938 333.277344 C 292.796875 334.152344 292.910156 334.609375 293.140625 335.507812 C 293.140625 335.507812 292.890625 335.449219 292.53125 335.449219 C 291.710938 335.449219 290.320312 335.734375 289.976562 337.621094 C 289.480469 340.34375 291.121094 341.945312 291.121094 341.945312 C 290.1875 341.984375 289.730469 341.984375 288.796875 342.019531 " fill-opacity="1" fill-rule="nonzero"/><path fill="#ffde59" d="M 299.425781 342.628906 C 298.644531 342.628906 298.054688 341.714844 298.09375 340.574219 C 298.128906 339.410156 298.796875 338.441406 299.597656 338.421875 L 299.617188 338.421875 C 300.398438 338.421875 300.988281 339.335938 300.949219 340.476562 C 300.910156 341.640625 300.246094 342.613281 299.464844 342.628906 L 299.425781 342.628906 " fill-opacity="1" fill-rule="nonzero"/><path fill="#ffde59" d="M 299.902344 346.667969 C 298.796875 346.667969 297.921875 346.15625 297.941406 345.527344 C 297.957031 344.878906 298.910156 344.324219 300.074219 344.289062 L 300.207031 344.289062 C 301.3125 344.289062 302.167969 344.785156 302.148438 345.410156 C 302.148438 346.058594 301.179688 346.632812 300.015625 346.648438 C 299.976562 346.667969 299.941406 346.667969 299.902344 346.667969 " fill-opacity="1" fill-rule="nonzero"/><path fill="#ffde59" d="M 301.539062 354.214844 C 299.863281 354.214844 298.53125 353.222656 298.570312 351.984375 C 298.585938 350.707031 300.035156 349.660156 301.769531 349.601562 L 301.882812 349.601562 C 303.578125 349.601562 304.894531 350.59375 304.875 351.832031 C 304.835938 353.109375 303.40625 354.15625 301.65625 354.214844 L 301.539062 354.214844 " fill-opacity="1" fill-rule="nonzero"/><path fill="#ffde59" d="M 294.128906 362.917969 C 293.464844 362.917969 293.023438 362.898438 293.023438 362.898438 C 293.023438 362.898438 289.578125 361.507812 286.738281 361.507812 C 286.109375 361.507812 285.5 361.566406 284.96875 361.757812 C 284.71875 361.832031 284.527344 361.871094 284.355469 361.871094 C 282.738281 361.871094 285.9375 357.679688 285.9375 357.679688 C 285.9375 357.679688 280.167969 352.230469 271.824219 351.566406 C 271.824219 351.566406 271.289062 351.414062 270.46875 351.414062 C 269.195312 351.414062 267.191406 351.8125 265.574219 353.945312 C 264.070312 353.871094 263.308594 353.8125 261.78125 353.738281 C 262.070312 352.519531 264.640625 347.125 272.183594 347.125 L 272.296875 347.125 C 279.9375 347.183594 280.945312 347.222656 286.699219 350.554688 C 292.433594 353.890625 301.425781 358.269531 301.710938 360.765625 C 301.921875 362.691406 296.511719 362.917969 294.128906 362.917969 " fill-opacity="1" fill-rule="nonzero"/><path fill="#ffde59" d="M 284.015625 372.804688 C 283.136719 372.195312 282.699219 371.871094 281.824219 371.261719 C 281.824219 371.261719 281.84375 367.796875 284.929688 367.796875 C 285.785156 367.796875 286.890625 368.0625 288.300781 368.75 C 291.539062 370.519531 291.273438 371.261719 291.578125 372.328125 C 288.546875 372.519531 287.023438 372.613281 284.015625 372.804688 " fill-opacity="1" fill-rule="nonzero"/><path fill="#ffde59" d="M 310.246094 372.292969 C 308.644531 372.292969 306.132812 370.425781 306.285156 369.929688 C 306.320312 369.738281 306.132812 369.644531 305.808594 369.644531 C 305.121094 369.644531 303.882812 370.140625 303.769531 371.242188 C 303.710938 371.796875 303.179688 371.988281 302.511719 371.988281 C 301.253906 371.988281 299.464844 371.300781 299.464844 371.300781 C 298.339844 370.824219 297.769531 370.578125 296.644531 370.082031 C 296.949219 369.222656 297.101562 368.804688 297.40625 367.949219 C 300.703125 367.890625 302.359375 367.871094 305.675781 367.816406 C 305.675781 367.816406 303.65625 363.757812 304.625 362.710938 C 305.007812 362.308594 306.761719 362.195312 308.777344 362.195312 C 312.074219 362.195312 316.074219 362.519531 316.074219 362.519531 C 316.074219 362.519531 322.933594 365.222656 322.800781 368.386719 C 322.683594 371.53125 312.398438 370.671875 311.160156 371.949219 C 310.933594 372.195312 310.609375 372.292969 310.246094 372.292969 " fill-opacity="1" fill-rule="nonzero"/><path fill="#ffde59" d="M 333.582031 373.1875 C 332.152344 373.1875 330.972656 372.273438 330.742188 371.035156 C 330.25 371.207031 329.734375 371.28125 329.164062 371.28125 L 329.105469 371.28125 C 326.992188 371.28125 325.3125 370.121094 325.3125 368.671875 C 325.332031 367.203125 327.085938 365.984375 329.21875 365.96875 L 329.296875 365.96875 C 331.085938 365.96875 332.554688 366.804688 332.953125 367.949219 C 333.183594 367.890625 333.410156 367.851562 333.660156 367.851562 L 333.675781 367.851562 C 335.296875 367.851562 336.59375 369.015625 336.574219 370.480469 C 336.574219 371.96875 335.238281 373.167969 333.601562 373.1875 L 333.582031 373.1875 " fill-opacity="1" fill-rule="nonzero"/><path fill="#ffde59" d="M 342.515625 372.042969 C 341.886719 372.042969 341.257812 371.644531 340.953125 370.957031 C 340.707031 370.40625 340.726562 369.777344 340.933594 369.261719 C 340.648438 369.035156 340.460938 368.671875 340.460938 368.253906 C 340.460938 367.546875 340.972656 366.976562 341.621094 366.957031 C 342.25 366.957031 342.765625 367.527344 342.765625 368.234375 C 343.257812 368.367188 343.699219 368.710938 343.945312 369.261719 C 344.382812 370.214844 344.058594 371.378906 343.242188 371.851562 C 343.011719 371.988281 342.765625 372.042969 342.515625 372.042969 " fill-opacity="1" fill-rule="nonzero"/><path fill="#ffde59" d="M 347.394531 375.015625 C 346.765625 375.015625 346.15625 374.617188 345.832031 373.929688 C 345.394531 372.976562 345.71875 371.816406 346.535156 371.359375 C 346.785156 371.222656 347.03125 371.167969 347.277344 371.167969 C 347.90625 371.167969 348.515625 371.566406 348.820312 372.234375 C 349.261719 373.207031 348.957031 374.367188 348.117188 374.824219 C 347.886719 374.957031 347.640625 375.015625 347.394531 375.015625 " fill-opacity="1" fill-rule="nonzero"/><path fill="#ffde59" d="M 354.707031 388.75 C 354.0625 388.75 353.449219 388.046875 353.128906 386.863281 C 352.917969 386.027344 352.878906 385.132812 353.011719 384.332031 C 352.382812 384.332031 351.753906 383.929688 351.433594 383.246094 C 351.144531 382.597656 351.203125 381.855469 351.507812 381.300781 C 351.449219 381.300781 351.375 381.320312 351.316406 381.320312 C 350.6875 381.320312 350.078125 380.921875 349.753906 380.234375 L 349.660156 379.929688 L 349.488281 380.042969 C 349.261719 380.179688 349.011719 380.253906 348.765625 380.253906 C 348.136719 380.253906 347.507812 379.835938 347.203125 379.148438 C 346.765625 378.175781 347.089844 377.035156 347.90625 376.558594 C 348.136719 376.425781 348.382812 376.367188 348.652344 376.367188 C 349.261719 376.367188 349.886719 376.769531 350.195312 377.453125 L 350.308594 377.757812 L 350.460938 377.644531 C 350.6875 377.53125 350.9375 377.453125 351.183594 377.453125 C 351.8125 377.453125 352.441406 377.855469 352.765625 378.539062 C 353.050781 379.1875 352.992188 379.929688 352.6875 380.484375 C 352.746094 380.464844 352.824219 380.464844 352.878906 380.464844 C 353.507812 380.464844 354.136719 380.863281 354.441406 381.550781 C 354.535156 381.722656 354.574219 381.910156 354.59375 382.082031 C 355.222656 382.121094 355.832031 382.789062 356.136719 383.96875 C 356.59375 385.625 356.269531 387.625 355.433594 388.425781 C 355.203125 388.65625 354.957031 388.75 354.707031 388.75 " fill-opacity="1" fill-rule="nonzero"/><path fill="#ffde59" d="M 352.195312 375.757812 C 351.546875 375.757812 350.9375 375.359375 350.613281 374.671875 C 350.175781 373.699219 350.5 372.558594 351.335938 372.082031 C 351.566406 371.949219 351.8125 371.890625 352.058594 371.890625 C 352.6875 371.890625 353.296875 372.292969 353.621094 372.976562 C 354.0625 373.949219 353.738281 375.089844 352.917969 375.550781 C 352.6875 375.683594 352.421875 375.757812 352.195312 375.757812 " fill-opacity="1" fill-rule="nonzero"/><path fill="#ffde59" d="M 344.515625 378.332031 C 344.117188 378.332031 343.601562 378.101562 343.050781 377.644531 C 341.90625 376.710938 341.03125 375.089844 341.105469 374.0625 C 341.164062 373.53125 341.449219 373.261719 341.886719 373.261719 C 342.289062 373.261719 342.800781 373.492188 343.335938 373.929688 C 344.496094 374.882812 345.375 376.480469 345.277344 377.511719 C 345.242188 378.042969 344.9375 378.332031 344.515625 378.332031 " fill-opacity="1" fill-rule="nonzero"/><path fill="#ffde59" d="M 349.46875 402.140625 L 346.9375 402.140625 L 346.9375 397.398438 L 349.070312 397.398438 L 349.070312 393.074219 L 351.222656 393.074219 L 351.222656 388.769531 C 352.230469 388.75 352.746094 388.75 353.753906 388.75 L 353.753906 393.476562 L 351.601562 393.476562 L 351.601562 397.800781 L 349.46875 397.800781 L 349.46875 402.140625 " fill-opacity="1" fill-rule="nonzero"/><path fill="#ffde59" d="M 359.566406 397.398438 C 359.320312 397.398438 359.011719 393.476562 359.011719 393.476562 C 360.441406 393.988281 361.167969 394.238281 362.59375 394.75 C 362.40625 395.800781 362.308594 396.332031 362.101562 397.378906 C 362.101562 397.378906 361.109375 397.246094 360.367188 397.246094 C 359.984375 397.246094 359.679688 397.285156 359.605469 397.378906 C 359.585938 397.398438 359.585938 397.398438 359.566406 397.398438 " fill-opacity="1" fill-rule="nonzero"/><path fill="#ffde59" d="M 364.082031 692.652344 C 363.03125 691.320312 362.253906 690.976562 361.566406 690.976562 C 361.203125 690.976562 360.863281 691.070312 360.519531 691.167969 C 360.175781 691.261719 359.851562 691.359375 359.488281 691.359375 C 359.335938 691.359375 359.183594 691.339844 359.03125 691.300781 C 357.394531 690.898438 358.652344 687.507812 357.050781 687.507812 C 356.765625 687.507812 356.441406 687.527344 356.097656 687.527344 C 354.402344 687.527344 352.058594 687.03125 351.164062 681.089844 C 350.097656 673.945312 341.011719 666.667969 341.011719 666.667969 C 340.953125 665.699219 340.953125 665.203125 340.917969 664.230469 C 342.039062 663.714844 342.628906 663.449219 343.773438 662.933594 C 344.003906 661.335938 344.117188 660.535156 344.363281 658.914062 C 343.105469 657.296875 342.496094 656.476562 341.238281 654.820312 C 341.203125 653.183594 341.203125 652.363281 341.164062 650.707031 C 338.34375 646.953125 336.914062 645.066406 334.039062 641.257812 C 333.066406 637.523438 332.554688 635.65625 331.5625 631.882812 C 328.230469 612.035156 325.066406 592.164062 322.113281 572.257812 C 328.09375 551.113281 303.710938 539.378906 296.855469 530.121094 C 295.75 528.613281 285.84375 517.871094 283.710938 508.859375 C 281.558594 499.847656 274.507812 491.46875 271.421875 487.238281 C 268.355469 482.988281 270.335938 476.988281 271.554688 474.796875 C 272.792969 472.609375 273.328125 471.921875 270.964844 469.695312 C 268.601562 467.464844 268.089844 463.710938 269.15625 463.046875 C 270.242188 462.378906 279.460938 447.632812 281.726562 440.679688 C 284.015625 433.726562 279.347656 422.851562 279.347656 422.851562 C 279.519531 421.898438 279.59375 421.421875 279.746094 420.449219 C 279.347656 419.152344 279.15625 418.488281 278.757812 417.171875 C 277.574219 416.066406 276.566406 415.6875 275.726562 415.6875 C 273.785156 415.6875 272.773438 417.726562 272.773438 417.726562 C 272.773438 417.726562 272.71875 422.773438 270.640625 423.078125 C 270.585938 423.097656 270.527344 423.097656 270.449219 423.097656 C 268.277344 423.097656 263.328125 418.5625 260.945312 418.335938 C 258.488281 418.105469 250.125 408.90625 250.125 408.90625 C 250.125 408.90625 250.582031 405.09375 249.113281 404.503906 C 247.6875 403.894531 245.417969 398.332031 245.417969 398.332031 C 245.152344 397.171875 245.019531 396.597656 244.753906 395.457031 C 244.179688 395.511719 243.628906 395.550781 243.09375 395.550781 C 237.683594 395.550781 233.417969 391.761719 224.101562 383.703125 C 222.386719 382.332031 221.265625 381.855469 220.332031 381.855469 C 219.246094 381.855469 218.367188 382.484375 217.054688 383.113281 C 215.738281 383.742188 213.988281 384.367188 211.128906 384.367188 C 211.074219 384.367188 211.015625 384.351562 210.957031 384.351562 C 202.558594 384.292969 183.726562 366.863281 183.726562 366.863281 C 183.726562 366.863281 184.992188 363.964844 185.445312 357.984375 C 185.90625 352.003906 176.984375 342.535156 176.984375 342.535156 C 177.230469 340.972656 177.351562 340.191406 177.597656 338.628906 C 175.660156 335.105469 174.722656 333.371094 172.886719 329.945312 C 172.855469 326.230469 172.855469 324.398438 172.894531 320.722656 C 171.925781 319.332031 170.941406 318.800781 170.070312 318.800781 C 168.128906 318.800781 166.714844 321.464844 167.117188 323.464844 C 168.507812 328.402344 169.246094 330.894531 170.808594 336 C 170.800781 338.210938 170.800781 339.316406 170.816406 341.5625 C 171.113281 343.507812 171.269531 344.460938 171.582031 346.421875 C 172.378906 349.011719 172.789062 350.328125 173.621094 352.976562 C 173.382812 352.992188 173.152344 353.03125 172.921875 353.03125 C 168.105469 353.03125 166.484375 344.554688 167.394531 343.488281 C 168.335938 342.363281 166.984375 341.335938 164.007812 339.527344 C 161.039062 337.695312 163.714844 334.285156 164.5 332.210938 C 165.28125 330.113281 162.078125 324.894531 162.078125 324.894531 C 162.078125 324.894531 163.269531 319.085938 164.105469 315.828125 C 164.9375 312.570312 157.769531 310.035156 157.769531 310.035156 C 158.3125 304.914062 158.628906 302.378906 159.3125 297.347656 C 155.449219 293.425781 160.355469 286.089844 161.328125 285.863281 C 162.304688 285.652344 164.355469 285.082031 165.371094 281.386719 C 166.390625 277.691406 182.34375 258.679688 182.34375 258.679688 C 182.34375 258.679688 187.597656 257.933594 188.800781 256.449219 C 190.007812 254.964844 198.613281 247.496094 192.746094 244.601562 C 186.867188 241.6875 191.871094 237.570312 191.871094 237.570312 C 189.84375 237.246094 193.699219 231.207031 195.183594 229.457031 C 196.652344 227.722656 197.222656 224.882812 198.632812 220.101562 C 199.414062 217.378906 194.367188 216.121094 189.21875 216.121094 C 185.246094 216.121094 181.210938 216.863281 179.738281 218.292969 C 176.375 221.550781 170.59375 225.09375 166.65625 226.273438 C 162.71875 227.472656 131.972656 252.410156 131.972656 252.410156 C 130.195312 253 129.308594 253.324219 127.574219 253.953125 L 127.558594 253.972656 L 127.589844 253.933594 C 128.214844 253.457031 148.292969 237.953125 147.421875 237.78125 L 147.339844 237.78125 C 146.394531 237.78125 144.207031 240.390625 142.679688 241.058594 C 142.355469 241.210938 142.070312 241.265625 141.847656 241.265625 C 140.992188 241.265625 140.910156 240.351562 141.847656 239.628906 C 143.039062 238.695312 147.449219 235.742188 148.023438 233.496094 C 148.605469 231.246094 152.019531 228.542969 153.425781 227.132812 C 154.832031 225.742188 164.707031 220.101562 164.707031 220.101562 C 167.304688 217.738281 168.605469 216.539062 171.195312 214.160156 C 171.195312 214.160156 171.285156 213.816406 170.988281 213.816406 C 170.773438 213.816406 170.355469 214.007812 169.542969 214.617188 C 168.144531 215.683594 161.246094 220.75 160.09375 220.75 C 159.667969 220.75 160.042969 220.046875 161.789062 218.160156 C 168.242188 211.226562 175.570312 208.9375 175.570312 208.9375 C 177.1875 207.511719 177.992188 206.785156 179.605469 205.359375 C 179.605469 205.359375 179.3125 205.453125 179.023438 205.453125 C 178.546875 205.453125 178.085938 205.167969 179.105469 203.605469 C 180.726562 201.109375 184.226562 198.785156 184.226562 198.785156 C 186.292969 197.507812 187.34375 196.878906 189.441406 195.640625 C 203.871094 183.644531 221.644531 174.707031 240.484375 172.894531 C 240.484375 172.894531 246.316406 171.761719 250.03125 169.058594 C 253.421875 166.597656 263.917969 160.480469 265.898438 160.480469 C 266.070312 160.480469 266.183594 160.535156 266.203125 160.644531 C 266.296875 161.015625 266.832031 161.152344 267.554688 161.152344 C 269.363281 161.152344 272.296875 160.324219 272.296875 160.324219 C 275.0625 159.527344 276.453125 159.132812 279.25 158.382812 C 278.945312 159.207031 280.832031 159.445312 283.101562 159.445312 C 286.148438 159.445312 289.902344 159.015625 289.902344 159.015625 C 288.871094 160.382812 288.375 161.0625 287.367188 162.4375 C 290.222656 161.65625 291.671875 161.285156 294.550781 160.554688 C 295.976562 160.445312 296.683594 160.390625 298.109375 160.289062 C 297.3125 161.820312 298.261719 164.3125 299.386719 164.304688 C 299.652344 164.304688 299.941406 164.15625 300.207031 163.804688 C 301.484375 162.15625 307.386719 155.4375 310.589844 155.4375 C 310.835938 155.4375 311.085938 155.480469 311.3125 155.578125 C 312.417969 156.066406 314.171875 156.222656 315.921875 156.222656 C 318.78125 156.222656 321.636719 155.808594 321.636719 155.808594 C 323.332031 155.585938 324.210938 155.480469 325.925781 155.273438 C 326.132812 157.523438 327.179688 158.039062 328.09375 158.039062 C 328.859375 158.039062 329.503906 157.6875 329.503906 157.6875 C 331.429688 155.941406 332.402344 155.070312 334.324219 153.335938 C 335.714844 152.988281 336.402344 152.808594 337.792969 152.464844 C 340.859375 148.203125 338.191406 146.222656 338.191406 146.222656 C 342.765625 144.019531 345.03125 142.949219 349.566406 140.855469 C 348.746094 143.269531 348.347656 144.480469 347.546875 146.914062 C 350.175781 147.464844 351.507812 147.753906 354.195312 148.359375 C 354.195312 148.359375 355.375 148.597656 353.28125 150.1875 C 351.164062 151.78125 351.660156 153.515625 352.15625 154.59375 C 352.195312 154.65625 352.25 154.675781 352.328125 154.675781 C 353.660156 154.675781 361.910156 146.40625 361.910156 146.40625 C 361.910156 146.40625 366.632812 146.109375 368.003906 146.109375 C 368.175781 146.109375 368.289062 146.117188 368.347656 146.125 C 368.367188 146.125 368.386719 146.132812 368.40625 146.132812 C 368.5 146.132812 368.652344 146.109375 368.804688 146.09375 C 368.976562 146.074219 369.167969 146.058594 369.375 146.058594 C 370.519531 146.058594 371.816406 146.652344 368.882812 151.335938 C 365.109375 157.375 361.984375 157.59375 361.546875 157.59375 L 361.488281 157.59375 L 350.5 158.949219 C 350.5 158.949219 343.394531 159.417969 341.832031 160.339844 C 340.269531 161.261719 343.773438 164.976562 343.773438 164.976562 C 340.421875 166.292969 338.726562 166.96875 335.371094 168.332031 C 335.371094 168.332031 329.945312 168.902344 329.449219 168.957031 C 329.21875 170.503906 329.085938 171.269531 328.859375 172.820312 C 313.902344 176.472656 306.683594 190.59375 306.683594 190.59375 C 307.445312 190.804688 307.808594 190.917969 308.550781 191.128906 C 309.578125 193.46875 310.113281 194.652344 311.179688 197.050781 C 312.683594 196.898438 313.425781 196.84375 314.953125 196.726562 C 317.484375 198.308594 318.78125 199.109375 321.371094 200.765625 C 331.90625 201.109375 329.753906 203.738281 329.753906 203.738281 C 324.703125 214.273438 326.875 216.273438 329.257812 216.273438 C 330.726562 216.273438 332.285156 215.511719 332.285156 215.511719 C 333.753906 213.246094 335.277344 206.042969 339.90625 203.679688 C 354.5 197.261719 352.765625 189.488281 352.765625 189.488281 C 352.917969 187.460938 352.976562 186.457031 353.128906 184.449219 C 353.335938 184.621094 353.546875 184.703125 353.738281 184.703125 C 355.03125 184.703125 356.136719 181.382812 357.699219 178.066406 C 359.261719 174.746094 361.300781 171.425781 364.460938 171.425781 L 364.59375 171.425781 C 366.175781 171.472656 387.644531 171.507812 381.417969 180.652344 C 377.359375 186.585938 379.246094 187.625 381.074219 187.625 C 382.046875 187.625 383.015625 187.320312 383.015625 187.320312 C 388.371094 183.957031 391.035156 182.3125 396.238281 179.113281 C 396.238281 179.113281 398.410156 191.699219 396.675781 193.316406 C 394.941406 194.957031 400.828125 201.015625 400.828125 201.015625 C 400.695312 202.121094 400.636719 202.652344 400.503906 203.757812 C 403.226562 203.816406 404.582031 203.851562 407.285156 203.929688 C 410.960938 219.589844 378.578125 220.941406 367.71875 222.332031 C 367.242188 223.378906 367.015625 223.894531 366.519531 224.921875 C 369.757812 225.09375 371.378906 225.1875 374.632812 225.398438 C 365.300781 237.171875 374.902344 237.988281 377.71875 237.988281 C 378.160156 237.988281 378.425781 237.953125 378.425781 237.953125 C 380.292969 237.953125 381.226562 237.953125 383.09375 237.933594 C 382.996094 238.828125 382.960938 239.285156 382.863281 240.179688 L 382.769531 240.179688 C 380.007812 240.179688 363.339844 250.429688 363.339844 250.429688 C 363.339844 250.429688 361.507812 247.839844 360.804688 247.839844 C 360.785156 247.839844 360.746094 247.859375 360.726562 247.859375 C 360.726562 247.859375 374.082031 241.855469 368.976562 241.078125 C 346.421875 243.839844 343.8125 251.421875 343.8125 251.421875 C 343.316406 253.535156 343.070312 254.601562 342.554688 256.734375 C 333.621094 257.476562 330.800781 266.164062 325.542969 267.308594 C 320.304688 268.46875 316.589844 275.347656 316.589844 275.347656 C 315.425781 275.421875 314.835938 275.441406 313.695312 275.519531 C 313.847656 276.890625 313.066406 291.882812 304.167969 294.910156 C 288.699219 299.558594 285.082031 310.875 285.082031 310.875 C 284.8125 317.105469 284.699219 320.226562 284.492188 326.535156 C 284.851562 326.722656 285.042969 326.820312 285.40625 327.011719 C 285.652344 329.066406 284.148438 337.390625 281.042969 337.390625 C 280.871094 337.390625 280.679688 337.355469 280.507812 337.296875 C 273.195312 335.792969 277.308594 319.464844 277.308594 319.464844 C 275.441406 317.980469 274.507812 317.257812 272.679688 315.789062 C 271.5 316.191406 270.488281 316.359375 269.59375 316.359375 C 266.109375 316.359375 264.144531 313.941406 260.832031 313.675781 C 260.714844 313.65625 260.601562 313.65625 260.507812 313.65625 C 256.679688 313.65625 257.097656 319.601562 252.144531 321.144531 C 251.496094 321.351562 250.945312 321.429688 250.46875 321.429688 C 248.960938 321.429688 248.085938 320.589844 246.960938 319.734375 C 245.875 318.875 244.542969 318.039062 242.144531 318.039062 C 241.609375 318.039062 241.019531 318.074219 240.351562 318.171875 C 232.902344 319.257812 223.054688 328.839844 223.054688 328.839844 C 221.605469 332.554688 220.882812 334.421875 219.453125 338.152344 C 205.777344 361.738281 221.53125 369.910156 221.53125 369.910156 C 223.589844 370.710938 225.4375 371.054688 227.09375 371.054688 C 236.921875 371.054688 240.199219 359.128906 240.199219 359.128906 C 245.914062 356.136719 249.152344 355.164062 250.945312 355.164062 C 254.371094 355.164062 252.640625 358.671875 252.640625 358.671875 C 249.382812 368.101562 247.78125 372.84375 244.695312 382.292969 C 247.25 381.910156 249.4375 381.742188 251.285156 381.742188 C 263.765625 381.742188 261.460938 389.265625 261.460938 389.265625 C 260.734375 395.914062 260.390625 399.265625 259.765625 405.953125 C 258.5625 410.125 265.535156 415.6875 267.992188 415.6875 C 268.203125 415.6875 268.375 415.648438 268.507812 415.554688 C 270.261719 414.507812 272.964844 412.792969 277.25 412.695312 C 277.308594 412.675781 277.347656 412.675781 277.402344 412.675781 C 281.613281 412.675781 285.367188 416.621094 285.367188 416.621094 C 289.765625 414.238281 294.585938 404.847656 294.585938 404.847656 C 294.585938 404.847656 295.824219 405.210938 297.214844 405.210938 C 298.605469 405.210938 300.167969 404.847656 300.816406 403.4375 C 302.148438 400.582031 305.179688 398.523438 305.179688 398.523438 L 309.292969 398.523438 C 309.253906 399.496094 309.21875 399.988281 309.179688 400.960938 C 308.113281 401.855469 307.578125 402.296875 306.492188 403.152344 C 305.960938 406.601562 305.710938 408.316406 305.179688 411.742188 C 306.207031 413.210938 306.722656 413.933594 307.75 415.421875 L 307.828125 415.421875 C 308.550781 415.421875 308.570312 410.695312 309.828125 405.246094 C 310.628906 401.742188 313.808594 400.277344 315.730469 400.277344 C 316.894531 400.277344 317.582031 400.828125 316.96875 401.78125 C 315.390625 404.257812 331.335938 409.878906 335.296875 409.878906 C 335.410156 409.878906 335.523438 409.859375 335.621094 409.839844 L 336 409.839844 C 337.316406 409.839844 339.832031 410.390625 342.613281 411.304688 C 342.613281 411.304688 344.25 407.570312 345.546875 406.636719 C 346.136719 406.21875 347.144531 406.144531 348.078125 406.144531 L 349.011719 406.144531 C 349.296875 406.164062 349.566406 406.164062 349.773438 406.164062 C 350.058594 406.164062 350.25 406.164062 350.328125 406.105469 C 350.652344 405.859375 350.9375 403.4375 352.382812 403.4375 C 352.652344 403.4375 352.9375 403.515625 353.28125 403.703125 C 355.527344 404.90625 352.859375 408.21875 351.203125 409.132812 C 350.136719 409.742188 349.203125 412.046875 348.917969 413.898438 C 352.289062 415.59375 355.089844 417.667969 355.621094 419.800781 C 356.917969 424.925781 364.175781 431.402344 378.636719 431.402344 C 379.1875 431.402344 379.757812 431.402344 380.347656 431.382812 C 395.953125 443.082031 388.40625 446.128906 392.160156 449.023438 C 395.894531 451.921875 393.894531 454.816406 393.894531 454.816406 C 392.390625 457.519531 384.882812 466.683594 385.054688 468.304688 C 385.09375 468.625 385.246094 468.761719 385.511719 468.761719 C 386.539062 468.761719 389.074219 466.796875 391.703125 466.511719 C 391.875 466.492188 392.027344 466.472656 392.199219 466.472656 C 395.265625 466.472656 397.496094 469.710938 397.496094 469.710938 C 401.855469 467.101562 404.046875 465.808594 408.410156 463.199219 C 422.375 466.320312 415.742188 474.019531 416.21875 475.617188 C 416.277344 475.847656 416.429688 475.941406 416.640625 475.941406 C 417.859375 475.941406 421 472.53125 421 472.53125 C 421 472.53125 419.839844 471.371094 423.058594 471.371094 C 425.460938 471.371094 430.316406 472.035156 439.976562 474.324219 C 462.472656 479.65625 457.160156 493.429688 457.160156 493.429688 C 454.851562 500.269531 439.746094 508.515625 440.242188 523.660156 C 443.101562 546.75 428.660156 567.589844 428.660156 567.589844 C 428.660156 567.589844 423.800781 567.648438 422.257812 567.859375 C 420.734375 568.085938 406.925781 575.132812 406.066406 579.402344 C 409.058594 595.230469 402.371094 596.546875 402.371094 596.546875 C 402.3125 599.117188 402.296875 600.414062 402.238281 602.964844 C 397.152344 609.75 394.675781 613.082031 389.777344 619.636719 C 389.664062 619.691406 389.511719 619.730469 389.320312 619.730469 C 388.332031 619.730469 386.425781 618.988281 384.40625 618.261719 C 382.386719 617.519531 380.273438 616.777344 378.863281 616.777344 C 378.234375 616.777344 377.757812 616.910156 377.472656 617.253906 C 390.558594 636 377.71875 637.140625 377.71875 637.140625 C 374.769531 637.105469 373.300781 637.066406 370.367188 636.988281 C 370.863281 638.835938 371.109375 639.769531 371.605469 641.597656 C 370.597656 643.941406 370.082031 645.105469 369.109375 647.429688 C 366.195312 646.496094 364.746094 646 361.832031 645.027344 C 364.328125 647.621094 365.546875 648.894531 368.003906 651.449219 C 368.023438 652.285156 368.042969 652.707031 368.0625 653.542969 C 367.167969 654.707031 366.730469 655.277344 365.851562 656.4375 C 366.175781 657.773438 366.328125 658.421875 366.652344 659.734375 C 365.605469 662.171875 365.089844 663.394531 364.082031 665.792969 C 366.441406 668.667969 367.605469 670.078125 369.910156 672.898438 C 368.253906 676.957031 367.453125 678.957031 365.890625 682.898438 C 366.898438 685.1875 367.414062 686.308594 368.40625 688.558594 C 366.671875 690.214844 365.796875 691.035156 364.082031 692.652344 M 300.265625 239.667969 C 300.398438 239.667969 300.511719 239.6875 300.570312 239.722656 C 301.121094 239.972656 303.292969 241.839844 297.214844 243.554688 C 291.121094 245.265625 281.765625 260.640625 281.765625 260.640625 C 281.765625 260.640625 282.394531 263.460938 283.214844 263.460938 C 283.441406 263.460938 283.671875 263.25 283.917969 262.699219 C 285.042969 260.164062 298.683594 244.371094 300.605469 244.199219 C 300.683594 244.179688 300.777344 244.179688 300.855469 244.179688 C 302.683594 244.179688 304.246094 245.972656 303.503906 246.351562 C 302.742188 246.734375 300.949219 250.296875 301.65625 252.675781 C 301.882812 253.457031 302.320312 253.761719 302.835938 253.761719 C 303.863281 253.761719 305.179688 252.542969 305.75 251.515625 C 306.605469 250.011719 308.339844 247.972656 309.253906 247.972656 L 309.292969 247.972656 C 309.371094 247.992188 309.445312 247.992188 309.523438 247.992188 C 310.742188 247.992188 314.226562 247.34375 314.054688 244.027344 C 313.941406 241.972656 312.417969 241.285156 310.761719 241.285156 C 309.542969 241.285156 308.246094 241.667969 307.386719 242.144531 C 307.046875 242.332031 306.683594 242.429688 306.320312 242.429688 C 304.703125 242.429688 303.234375 240.542969 303.199219 239.628906 C 303.160156 238.503906 304.320312 233.265625 298.605469 231.496094 C 298.167969 231.359375 297.671875 231.285156 297.140625 231.285156 C 294.109375 231.285156 289.957031 233.417969 286.625 235.53125 C 283.289062 237.648438 280.792969 239.761719 281.082031 239.761719 C 281.082031 239.761719 281.101562 239.761719 281.117188 239.742188 C 281.15625 239.742188 281.195312 239.722656 281.214844 239.722656 C 281.671875 239.722656 282.414062 240.523438 283.136719 241.304688 C 283.84375 242.105469 284.546875 242.886719 284.949219 242.886719 C 285.101562 242.886719 285.214844 242.753906 285.234375 242.449219 C 285.441406 240.65625 290.644531 238.199219 292.167969 238.199219 C 292.414062 238.199219 292.566406 238.277344 292.585938 238.429688 C 292.605469 239.496094 296.433594 240.449219 296.433594 240.449219 C 296.433594 240.449219 299.214844 239.667969 300.265625 239.667969 M 308.207031 255.574219 C 307.789062 255.574219 307.199219 256.203125 306.53125 257.003906 C 305.386719 258.410156 302.207031 258.8125 299.769531 259.34375 C 297.347656 259.859375 299.464844 261.328125 300.929688 261.917969 L 301.332031 261.917969 C 302.167969 261.917969 304.054688 261.878906 305.007812 261.59375 C 306.226562 261.230469 308.949219 258.964844 308.796875 256.832031 C 308.742188 255.917969 308.53125 255.574219 308.207031 255.574219 M 321.90625 247.742188 C 321.066406 247.742188 320.132812 249.097656 318.742188 249.726562 C 317.046875 250.507812 315.789062 251.402344 315.714844 252.390625 C 315.714844 252.390625 321.769531 252.164062 322.265625 251.476562 C 322.761719 250.773438 323.464844 248.925781 322.476562 248.011719 C 322.285156 247.820312 322.09375 247.742188 321.90625 247.742188 " fill-opacity="1" fill-rule="nonzero"/><path fill="#ffde59" d="M 548.808594 233.761719 C 545.605469 232.503906 545.28125 228.3125 545.816406 227.816406 C 546.351562 227.339844 546.84375 225.226562 546.046875 224.921875 C 545.226562 224.617188 544.40625 222.007812 544.40625 222.007812 C 544.40625 222.007812 544.941406 221.054688 545.683594 221.054688 C 545.910156 221.054688 546.179688 221.148438 546.445312 221.417969 C 546.636719 221.605469 546.828125 221.683594 547.035156 221.683594 C 548.027344 221.683594 549.113281 219.949219 549.113281 219.949219 C 549.113281 219.949219 554.140625 221.226562 555.035156 221.570312 C 555.914062 221.929688 557.570312 224.996094 557.054688 225.054688 C 556.542969 225.09375 555.492188 227.167969 555.492188 227.167969 C 555.492188 227.167969 558.3125 232.066406 556.5625 232.066406 C 556.464844 232.066406 556.351562 232.046875 556.21875 232.007812 C 555.933594 231.933594 555.609375 231.914062 555.265625 231.914062 C 552.695312 231.914062 548.808594 233.761719 548.808594 233.761719 " fill-opacity="1" fill-rule="nonzero"/><path fill="#ffde59" d="M 577.132812 242.582031 C 575.933594 242.582031 571.402344 240.828125 571.402344 240.828125 C 570.257812 240.808594 569.285156 240.808594 568.390625 240.808594 C 566.617188 240.808594 565.058594 240.828125 562.75 240.867188 C 561.570312 240.140625 560.980469 239.761719 559.800781 239.039062 C 559.800781 239.039062 565.589844 238.503906 565.820312 237.972656 C 566.027344 237.4375 561.800781 236.429688 561.609375 235.398438 C 561.4375 234.351562 559.664062 234.484375 559.988281 233.285156 C 560.292969 232.085938 560.3125 230.121094 562.445312 229.835938 C 564.5625 229.550781 564.464844 227.722656 562.503906 224.863281 C 560.617188 224.046875 559.664062 223.644531 557.761719 222.828125 C 557.855469 222.578125 556.617188 218.863281 556.617188 218.863281 C 556.121094 218.730469 555.875 218.652344 555.378906 218.5 C 555.304688 217.417969 555.265625 216.882812 555.1875 215.796875 C 555.1875 215.796875 555.152344 213.433594 556.714844 213.433594 C 557.09375 213.433594 557.589844 213.566406 558.179688 213.929688 C 561.246094 215.71875 559.988281 216.253906 559.988281 216.253906 C 561.054688 216.691406 561.609375 216.921875 562.675781 217.378906 C 562.675781 217.378906 561.875 220.445312 561.78125 220.710938 C 561.683594 220.960938 564.179688 222.179688 564.179688 222.179688 C 564.179688 222.179688 572.5625 231.511719 573.726562 235.4375 C 575.058594 235.476562 575.707031 235.511719 577.019531 235.570312 C 577.019531 235.570312 578.601562 235.648438 577.933594 238.542969 C 577.707031 239.53125 577.363281 239.820312 577 239.820312 C 576.773438 239.820312 576.523438 239.683594 576.335938 239.550781 C 576.125 239.417969 575.933594 239.285156 575.820312 239.285156 C 575.707031 239.285156 575.648438 239.398438 575.667969 239.683594 C 575.742188 241.152344 577.609375 241.855469 577.4375 242.484375 C 577.421875 242.542969 577.304688 242.582031 577.132812 242.582031 " fill-opacity="1" fill-rule="nonzero"/><path fill="#ffde59" d="M 621.769531 238.675781 C 620.777344 238.179688 620.28125 237.953125 619.273438 237.457031 C 618.96875 236.867188 618.816406 236.5625 618.492188 235.953125 C 618.398438 235.4375 618.339844 235.191406 618.242188 234.695312 C 618.738281 234.941406 618.988281 235.054688 619.480469 235.324219 C 620.148438 236.179688 620.472656 236.597656 621.140625 237.457031 C 621.386719 237.933594 621.519531 238.179688 621.769531 238.675781 " fill-opacity="1" fill-rule="nonzero"/><path fill="#ffde59" d="M 665.679688 319.445312 C 665.5625 319.445312 665.429688 319.429688 665.296875 319.410156 C 662.972656 318.875 661.8125 318.609375 659.449219 318.074219 C 658.4375 317.867188 657.429688 316.835938 657.144531 315.789062 C 656.894531 314.875 657.296875 314.246094 658.039062 314.246094 C 658.171875 314.246094 658.285156 314.265625 658.421875 314.304688 C 660.761719 314.855469 661.945312 315.121094 664.269531 315.675781 C 665.238281 315.921875 666.269531 316.953125 666.554688 317.960938 C 666.800781 318.855469 666.421875 319.445312 665.679688 319.445312 " fill-opacity="1" fill-rule="nonzero"/><path fill="#ffde59" d="M 631.027344 304.625 C 631.027344 304.625 622.035156 302.113281 621.941406 299.3125 C 621.863281 297.597656 622.414062 297.273438 622.835938 297.273438 C 623.121094 297.273438 623.347656 297.40625 623.347656 297.40625 C 623.824219 297.5 630.949219 299.960938 630.949219 299.960938 C 630.988281 301.808594 631.007812 302.757812 631.027344 304.625 " fill-opacity="1" fill-rule="nonzero"/><path fill="#ffde59" d="M 630.113281 308.96875 C 629.214844 308.777344 628.757812 308.703125 627.863281 308.53125 C 627.636719 307.445312 627.503906 306.894531 627.253906 305.808594 C 628.722656 306.53125 629.445312 306.914062 630.914062 307.636719 C 630.589844 308.167969 630.417969 308.4375 630.113281 308.96875 " fill-opacity="1" fill-rule="nonzero"/><path fill="#ffde59" d="M 610.375 283.101562 C 609.785156 283.101562 607.957031 282.492188 607.957031 282.492188 C 607.957031 282.492188 605.574219 278.433594 606.167969 277.996094 C 606.472656 277.785156 607.175781 277.726562 607.824219 277.726562 C 608.472656 277.726562 609.082031 277.785156 609.082031 277.785156 C 609.082031 277.785156 610.910156 282.984375 610.472656 283.082031 C 610.453125 283.082031 610.414062 283.101562 610.375 283.101562 " fill-opacity="1" fill-rule="nonzero"/><path fill="#ffde59" d="M 611.289062 292.683594 C 610.566406 292.53125 610.1875 292.453125 609.460938 292.300781 C 609.460938 292.300781 602.964844 284.050781 607.804688 283.539062 C 609.136719 284.015625 609.785156 284.261719 611.101562 284.738281 C 611.84375 287.691406 612.207031 289.15625 612.910156 292.128906 C 612.261719 292.339844 611.9375 292.453125 611.289062 292.683594 " fill-opacity="1" fill-rule="nonzero"/><path fill="#ffde59" d="M 596.128906 286.300781 C 595.554688 286.1875 595.269531 286.128906 594.71875 286.015625 C 594.527344 285.0625 594.414062 284.585938 594.203125 283.632812 C 594.925781 284.035156 595.308594 284.242188 596.03125 284.625 C 596.070312 285.308594 596.089844 285.632812 596.128906 286.300781 " fill-opacity="1" fill-rule="nonzero"/><path fill="#ffde59" d="M 589.363281 289.15625 C 588.5625 289.003906 588.144531 288.929688 587.34375 288.777344 C 587.269531 287.863281 587.210938 287.425781 587.136719 286.511719 C 588.070312 286.679688 588.527344 286.777344 589.460938 286.949219 C 589.328125 286.300781 589.269531 285.996094 589.15625 285.347656 C 589.363281 285.234375 589.480469 285.175781 589.707031 285.042969 C 589.59375 284.605469 589.535156 284.375 589.421875 283.9375 C 589.613281 284.070312 592.679688 284.585938 592.679688 284.585938 C 592.925781 285.691406 593.042969 286.242188 593.269531 287.347656 C 592.984375 287.308594 592.851562 287.273438 592.566406 287.214844 C 592.621094 287.539062 592.640625 287.710938 592.679688 288.035156 C 591.402344 287.785156 590.753906 287.652344 589.460938 287.425781 C 589.421875 288.109375 589.402344 288.453125 589.363281 289.15625 " fill-opacity="1" fill-rule="nonzero"/><path fill="#ffde59" d="M 501.390625 377.054688 L 501.375 377.054688 C 500.117188 377.015625 499.488281 377.015625 498.230469 376.976562 C 497.5625 376.976562 497.03125 376.367188 497.011719 375.644531 C 497.011719 374.921875 497.507812 374.347656 498.152344 374.347656 L 498.171875 374.347656 C 499.429688 374.367188 500.058594 374.386719 501.316406 374.40625 C 501.964844 374.425781 502.515625 375.015625 502.515625 375.738281 C 502.535156 376.464844 502.019531 377.054688 501.390625 377.054688 " fill-opacity="1" fill-rule="nonzero"/><path fill="#ffde59" d="M 509.203125 380.160156 L 509.183594 380.160156 C 508.574219 380.160156 508.078125 379.605469 508.058594 378.921875 L 508.058594 378.386719 C 508.039062 377.71875 508.515625 377.1875 509.105469 377.1875 L 509.125 377.1875 C 509.71875 377.207031 510.230469 377.757812 510.230469 378.425781 C 510.25 378.652344 510.25 378.75 510.25 378.957031 C 510.269531 379.625 509.792969 380.160156 509.203125 380.160156 " fill-opacity="1" fill-rule="nonzero"/><path fill="#ffde59" d="M 507.242188 385.757812 C 506.480469 385.742188 506.097656 385.742188 505.355469 385.722656 C 504.820312 385.722656 504.402344 385.246094 504.382812 384.671875 C 504.382812 384.082031 504.78125 383.625 505.296875 383.625 L 505.316406 383.625 C 506.078125 383.625 506.460938 383.625 507.203125 383.644531 C 507.714844 383.644531 508.15625 384.121094 508.15625 384.710938 C 508.15625 385.285156 507.753906 385.757812 507.242188 385.757812 " fill-opacity="1" fill-rule="nonzero"/><path fill="#ffde59" d="M 504.289062 380.082031 L 504.058594 380.082031 C 503.679688 380.082031 503.375 379.738281 503.375 379.320312 C 503.355469 378.921875 503.660156 378.578125 504.003906 378.578125 L 504.25 378.578125 C 504.628906 378.597656 504.933594 378.941406 504.933594 379.339844 C 504.953125 379.757812 504.648438 380.082031 504.289062 380.082031 " fill-opacity="1" fill-rule="nonzero"/><path fill="#ffde59" d="M 510.460938 385.796875 L 509.660156 385.796875 C 508.839844 385.777344 508.15625 385.015625 508.15625 384.101562 C 508.136719 383.1875 508.785156 382.445312 509.582031 382.445312 L 509.601562 382.445312 C 509.925781 382.464844 510.078125 382.464844 510.382812 382.464844 C 511.203125 382.484375 511.890625 383.226562 511.890625 384.160156 C 511.90625 385.074219 511.261719 385.796875 510.460938 385.796875 " fill-opacity="1" fill-rule="nonzero"/><path fill="#ffde59" d="M 669.375 316.304688 C 669.316406 316.304688 669.242188 316.285156 669.164062 316.265625 C 668.726562 316.152344 668.515625 316.09375 668.078125 316 C 667.527344 315.847656 666.953125 315.273438 666.78125 314.722656 C 666.628906 314.226562 666.820312 313.921875 667.222656 313.921875 C 667.296875 313.921875 667.355469 313.921875 667.449219 313.941406 C 667.886719 314.054688 668.097656 314.113281 668.535156 314.226562 L 668.726562 314.285156 C 666.078125 312.324219 663.449219 309.253906 662.859375 305.710938 C 661.542969 304.625 660.878906 304.09375 659.542969 302.988281 C 659.507812 302.207031 659.488281 301.808594 659.429688 301.027344 C 661.105469 301.464844 661.925781 301.691406 663.5625 302.148438 C 663.5625 302.148438 664.972656 302.054688 665.621094 301.464844 C 667.582031 306.835938 668.515625 309.617188 670.191406 314.988281 L 670.230469 315.105469 L 670.308594 315.351562 L 670.289062 315.351562 C 669.984375 315.160156 669.679688 314.96875 669.355469 314.742188 C 669.566406 314.96875 669.734375 315.21875 669.8125 315.484375 C 669.964844 315.960938 669.773438 316.304688 669.375 316.304688 " fill-opacity="1" fill-rule="nonzero"/><path fill="#ffde59" d="M 617.597656 570.410156 C 615.480469 570.410156 615.292969 567.132812 619.292969 562.886719 C 624.757812 557.054688 615.75 552.101562 617.957031 547.816406 C 620.167969 543.53125 617.0625 520.878906 619.195312 517.183594 C 621.3125 513.488281 619.386719 507.296875 630.132812 493.144531 C 627.730469 487.125 628.855469 475.066406 628.265625 473.769531 C 628.265625 473.769531 630.359375 472.855469 630.835938 470.339844 C 631.027344 469.371094 630.816406 469.007812 630.472656 469.007812 C 629.921875 469.007812 628.949219 469.921875 628.417969 470.761719 C 628.285156 470.96875 628.148438 471.046875 627.996094 471.046875 C 627.082031 471.046875 625.84375 467.808594 626.417969 466.722656 C 627.082031 465.445312 619.671875 459.464844 620.207031 457.175781 C 620.757812 454.910156 621.691406 448.359375 623.234375 445.882812 C 624.757812 443.40625 625.484375 437.976562 624.53125 436.773438 C 624.472656 436.71875 624.378906 436.679688 624.265625 436.679688 C 623.652344 436.679688 622.414062 437.289062 622.414062 437.289062 C 622.414062 437.289062 621.273438 438.355469 620.074219 438.355469 C 619.84375 438.355469 619.617188 438.316406 619.386719 438.222656 C 617.976562 437.613281 621.195312 434.070312 621.195312 434.070312 C 619.40625 432.773438 617.597656 431.554688 617.597656 431.554688 C 614.71875 432.335938 613.273438 432.71875 610.375 433.5 C 610.375 433.5 612.070312 424.699219 604.335938 424.699219 C 603.691406 424.699219 602.964844 424.753906 602.183594 424.886719 C 592.488281 426.546875 586.144531 432.832031 582.753906 432.832031 C 582.582031 432.832031 582.410156 432.832031 582.238281 432.792969 C 580.753906 432.449219 577.992188 431.917969 574.925781 431.917969 C 571.382812 431.917969 567.4375 432.640625 564.65625 435.269531 C 564.085938 435.824219 563.378906 436.050781 562.582031 436.050781 C 556.121094 436.050781 543.300781 420.164062 542.941406 418.011719 C 542.519531 415.574219 541.625 412.621094 541.625 412.621094 C 541.625 412.621094 534.445312 402.277344 533.300781 402.007812 C 532.136719 401.742188 526.9375 399.226562 528.652344 395.476562 C 530.347656 391.703125 529.015625 387.53125 528.195312 385.835938 C 527.355469 384.121094 530.5 379.261719 532.042969 376.976562 C 533.605469 374.710938 532.917969 364.710938 531.359375 362.480469 C 529.777344 360.25 525.832031 353.203125 536.425781 339.507812 C 547.035156 325.828125 554.046875 319.371094 554.046875 319.371094 C 554.484375 314.359375 554.695312 311.863281 555.054688 306.914062 C 555.054688 306.914062 563.835938 302.359375 565.246094 297.769531 C 565.703125 296.28125 566.160156 295.75 566.636719 295.75 C 567.609375 295.75 568.65625 298.015625 569.933594 298.644531 C 571.78125 299.578125 576.257812 301.464844 576.8125 301.464844 L 576.828125 301.464844 C 579.363281 300.875 588.394531 297.007812 591.9375 297.007812 C 592.277344 297.007812 592.566406 297.042969 592.792969 297.121094 C 595.421875 297.996094 609.765625 300.074219 609.765625 300.074219 C 609.765625 300.074219 611.042969 299.425781 612.679688 299.425781 C 615.480469 299.425781 619.328125 301.292969 619.863281 311.292969 C 621.789062 316.191406 633.425781 319.3125 634.703125 320.039062 C 634.703125 320.039062 638.742188 323.847656 638.875 326 C 639.007812 328.152344 646.191406 329.429688 647.886719 330.894531 C 648.152344 331.164062 648.457031 331.257812 648.761719 331.257812 C 650.265625 331.257812 651.886719 328.722656 651.886719 328.722656 C 651.886719 328.722656 648.875 322.074219 651.886719 322.074219 L 652.078125 322.074219 C 655.371094 322.34375 657.8125 323.675781 657.8125 323.675781 C 661.773438 326.246094 663.734375 327.523438 667.621094 330.019531 C 670.554688 330.742188 672.003906 331.105469 674.878906 331.847656 L 674.898438 331.847656 L 674.992188 332.324219 C 691.128906 410.21875 681.148438 482.324219 643.828125 552.617188 L 643.75 552.75 L 643.734375 552.75 C 638.457031 557.742188 634.113281 561.761719 633.636719 561.835938 C 632.359375 562.027344 625.007812 565.191406 620.605469 568.941406 C 619.40625 569.972656 618.378906 570.410156 617.597656 570.410156 " fill-opacity="1" fill-rule="nonzero"/><path fill="#ffde59" d="M 653.21875 310.78125 C 652.992188 310.78125 652.859375 310.550781 652.859375 310.550781 C 652.859375 310.550781 647.65625 304.550781 647.332031 303.75 C 647.199219 303.386719 647.65625 303.273438 648.210938 303.273438 C 648.894531 303.273438 649.714844 303.445312 649.714844 303.445312 C 649.636719 302.835938 649.621094 302.550781 649.542969 301.960938 C 649.542969 301.960938 643.523438 300.605469 642.703125 298.664062 C 641.867188 296.738281 637.046875 288.96875 637.046875 288.96875 C 637.046875 288.96875 633.828125 285.136719 630.074219 283.101562 C 626.320312 281.0625 621.0625 275.328125 619.941406 275.003906 C 618.816406 274.699219 617.082031 273.460938 616.433594 271.652344 C 616.207031 271.042969 615.671875 270.773438 615.140625 270.773438 C 614.054688 270.773438 612.929688 271.824219 614.28125 273.230469 C 616.300781 275.367188 622.054688 280.261719 624.054688 283.175781 C 626.035156 286.109375 633.503906 290.472656 635.710938 292.148438 C 637.921875 293.804688 638.035156 295.007812 638.035156 295.007812 C 635.980469 294.453125 634.933594 294.167969 632.875 293.617188 C 632.875 293.617188 633.921875 294.53125 634.320312 296.300781 C 634.722656 298.074219 634.09375 300.644531 633.558594 300.644531 L 633.542969 300.644531 C 633.007812 300.605469 630.949219 299.960938 630.949219 299.960938 C 630.417969 297.730469 630.148438 296.625 629.578125 294.398438 C 629.578125 294.398438 620.054688 283.996094 617.519531 283.996094 C 617.464844 283.996094 617.40625 283.996094 617.347656 284.015625 C 617.3125 284.015625 617.253906 284.035156 617.175781 284.035156 C 614.777344 284.035156 608.414062 274.660156 608.320312 273.441406 C 608.28125 272.832031 607.101562 272.355469 605.746094 272.355469 C 604.261719 272.355469 602.546875 272.925781 601.917969 274.527344 C 601.539062 275.519531 600.660156 275.878906 599.652344 275.878906 C 597.554688 275.878906 594.871094 274.355469 594.375 273.632812 C 594.109375 273.230469 593.269531 272.945312 592.414062 272.945312 C 591.023438 272.945312 589.59375 273.726562 590.660156 276.050781 C 591.554688 278.011719 591.613281 278.472656 591.460938 278.472656 C 591.328125 278.472656 591.023438 278.089844 591.023438 278.089844 C 591.023438 278.089844 582.582031 283.101562 582.714844 287.519531 C 582.867188 291.863281 579.078125 294.492188 577.476562 294.492188 L 577.34375 294.492188 C 575.820312 294.359375 569.171875 293.578125 569.171875 293.578125 C 569.171875 293.578125 568.066406 294.261719 566.371094 294.261719 C 565.609375 294.261719 564.695312 294.109375 563.722656 293.691406 C 561.113281 292.566406 561.550781 289.253906 560.847656 289.253906 C 560.734375 289.253906 560.5625 289.367188 560.332031 289.632812 C 560.332031 289.632812 559.246094 290.015625 558.007812 290.015625 C 556.636719 290.015625 555.054688 289.519531 554.597656 287.441406 C 553.761719 283.519531 554.21875 273.535156 553.988281 270.699219 C 553.78125 267.859375 550.863281 263.269531 555.78125 263.269531 L 555.875 263.269531 C 560.847656 263.308594 565.550781 267.574219 567.285156 267.574219 L 567.34375 267.574219 C 567.570312 267.574219 567.855469 267.554688 568.160156 267.554688 C 570.144531 267.554688 573.402344 267.804688 573.742188 267.878906 C 574.164062 267.878906 576.144531 260.621094 574.199219 257.609375 C 572.238281 254.582031 565 250.867188 563.933594 248.980469 C 562.867188 247.097656 565.171875 247.171875 570.125 246.542969 C 570.980469 246.429688 571.722656 246.390625 572.351562 246.390625 C 573.363281 246.390625 574.125 246.484375 574.714844 246.601562 C 575.304688 246.695312 575.726562 246.789062 576.046875 246.789062 C 576.390625 246.789062 576.621094 246.65625 576.792969 246.296875 C 577.34375 245.152344 578.390625 242.160156 580.640625 242.160156 C 580.867188 242.160156 581.117188 242.199219 581.363281 242.277344 C 581.535156 242.3125 581.6875 242.332031 581.859375 242.332031 C 584.601562 242.332031 588.5625 236.921875 588.5625 236.921875 C 590.753906 237.648438 591.839844 238.027344 594.011719 238.769531 C 594.011719 238.769531 595.992188 237.875 594.792969 236.886719 C 593.59375 235.894531 589.230469 230.828125 590.164062 230.066406 C 591.039062 229.339844 592.125 227.511719 592.832031 227.511719 C 592.886719 227.511719 592.925781 227.53125 592.964844 227.550781 C 593.667969 227.816406 595.097656 232.902344 595.097656 232.902344 C 595.097656 232.902344 595.898438 232.675781 596.851562 232.675781 C 597.519531 232.675781 598.28125 232.789062 598.890625 233.152344 C 600.316406 234.046875 602.851562 236.867188 602.070312 237.132812 C 601.996094 237.171875 601.898438 237.171875 601.785156 237.171875 C 601.441406 237.171875 600.964844 237.054688 600.507812 236.941406 C 600.070312 236.828125 599.632812 236.714844 599.308594 236.714844 C 599.078125 236.714844 598.925781 236.769531 598.910156 236.941406 C 598.792969 237.609375 599.726562 240.125 600.585938 240.125 C 600.660156 240.125 600.757812 240.105469 600.8125 240.066406 C 600.984375 239.972656 601.25 239.933594 601.554688 239.933594 C 603.003906 239.933594 605.613281 240.769531 605.613281 240.769531 C 606.851562 241.839844 607.460938 242.371094 608.679688 243.4375 C 611.15625 243.476562 612.359375 243.535156 614.757812 243.648438 C 616.511719 244.734375 617.386719 245.265625 619.121094 246.351562 C 620.433594 245.707031 621.0625 245.398438 622.28125 244.808594 C 621.140625 242.429688 620.566406 241.246094 619.386719 238.886719 C 620.871094 239.589844 621.617188 239.953125 623.101562 240.65625 C 623.976562 241.285156 624.433594 241.609375 625.3125 242.238281 C 625.3125 242.238281 626.300781 241.992188 625.179688 240.601562 C 624.074219 239.285156 621.253906 236.066406 621.957031 236.066406 C 621.996094 236.066406 622.035156 236.085938 622.074219 236.085938 C 623.179688 236.410156 627.214844 239.074219 627.214844 239.074219 C 627.214844 239.074219 630.285156 240.140625 631.234375 240.140625 C 631.539062 240.140625 631.636719 240.046875 631.386719 239.78125 C 631.386719 239.78125 626.207031 235.953125 625.824219 235.953125 L 625.789062 235.953125 C 625.351562 235.953125 622.359375 235.09375 621.941406 234.769531 C 621.539062 234.425781 615.75 230.882812 615.460938 230.273438 C 615.175781 229.664062 610.148438 226.101562 610.527344 223.035156 C 610.910156 219.96875 611.234375 219.054688 609.730469 217.644531 C 609.121094 217.074219 608.015625 216.730469 606.949219 216.730469 C 605.441406 216.730469 604.050781 217.398438 604.335938 218.996094 C 604.832031 221.742188 602.679688 220.75 603.082031 221.894531 C 603.5 223.015625 607.957031 227.589844 608.984375 228.007812 C 610.035156 228.40625 610.207031 230.847656 610.207031 230.847656 C 610.207031 230.847656 607.578125 231.226562 608.472656 234.597656 C 609.121094 236.960938 607.785156 237.667969 606.566406 237.667969 C 606.050781 237.667969 605.558594 237.550781 605.234375 237.359375 C 604.222656 236.734375 599.804688 232.675781 599.804688 232.675781 C 599.804688 232.675781 593.839844 223.757812 592.355469 222.941406 C 592.144531 222.828125 591.957031 222.789062 591.765625 222.789062 C 591.191406 222.789062 590.679688 223.167969 590.222656 223.550781 C 589.765625 223.929688 589.34375 224.3125 589.023438 224.3125 C 588.945312 224.3125 588.871094 224.292969 588.8125 224.234375 C 587.175781 223.605469 586.375 223.300781 584.734375 222.671875 C 584.734375 222.671875 580.984375 220.082031 580.507812 218.195312 C 580.03125 216.3125 578.03125 212.578125 578.03125 212.578125 C 578.03125 212.578125 575.953125 208.253906 579.421875 208.253906 C 580.105469 208.253906 581.058594 208.425781 582.277344 208.863281 C 582.886719 209.109375 583.421875 209.226562 583.898438 209.226562 C 585.78125 209.226562 586.679688 207.453125 587.800781 205.679688 C 588.925781 203.910156 590.296875 202.136719 593.136719 202.136719 C 595.347656 202.136719 598.433594 203.203125 602.984375 206.136719 C 602.984375 206.136719 612.207031 212.234375 619.730469 219.722656 C 620.1875 220.179688 620.644531 220.617188 621.101562 221.054688 L 621.179688 221.113281 C 622.378906 222.671875 622.96875 223.453125 624.148438 225.015625 C 623.808594 224.789062 623.558594 224.617188 623.484375 224.617188 L 623.464844 224.617188 C 623.3125 224.617188 624.226562 225.625 625.65625 227.074219 L 625.75 227.167969 C 626.128906 227.683594 626.492188 228.21875 626.855469 228.710938 C 627.882812 230.121094 628.894531 231.550781 629.882812 232.980469 C 630.453125 233.761719 630.988281 234.5625 631.539062 235.359375 C 632.589844 236.902344 633.636719 238.429688 634.644531 239.988281 C 635.101562 240.675781 635.558594 241.363281 636 242.046875 C 637.332031 244.105469 638.644531 246.164062 639.902344 248.257812 C 640.035156 248.449219 640.152344 248.640625 640.285156 248.828125 C 641.714844 251.171875 643.085938 253.535156 644.457031 255.914062 C 644.742188 256.429688 645.027344 256.945312 645.3125 257.441406 C 646.34375 259.269531 647.351562 261.117188 648.34375 262.964844 C 648.761719 263.726562 649.160156 264.488281 649.5625 265.269531 C 650.417969 266.886719 651.257812 268.527344 652.09375 270.183594 C 652.496094 271.023438 652.914062 271.839844 653.332031 272.679688 C 654.152344 274.335938 654.953125 276.011719 655.734375 277.707031 C 656.097656 278.472656 656.457031 279.25 656.820312 280.03125 C 657.792969 282.148438 658.726562 284.28125 659.640625 286.433594 C 659.773438 286.699219 659.886719 286.984375 660.019531 287.253906 L 660.019531 287.273438 C 659.792969 288.359375 660.097656 290.453125 659.675781 291.671875 C 659.183594 293.175781 661.925781 294.625 663.203125 296.835938 C 663.355469 297.082031 663.714844 297.386719 664.191406 297.710938 L 664.230469 297.75 C 664.441406 298.28125 664.535156 298.570312 664.746094 299.121094 L 664.726562 299.101562 C 663.984375 298.570312 663.105469 298.398438 662.289062 298.398438 C 660.6875 298.398438 659.238281 299.042969 659.238281 299.042969 C 659.238281 299.042969 656.191406 297.386719 655.105469 296.816406 C 654.953125 296.738281 654.820312 296.703125 654.6875 296.703125 C 653.960938 296.703125 653.675781 297.941406 653.199219 298.816406 C 653.066406 299.101562 652.839844 299.214844 652.570312 299.214844 C 651.867188 299.214844 650.894531 298.359375 650.667969 297.863281 C 650.609375 297.730469 650.476562 297.652344 650.324219 297.652344 C 649.714844 297.652344 648.761719 298.703125 650.496094 300.433594 C 652.667969 302.605469 655.65625 305.636719 654.570312 308.683594 C 653.960938 310.398438 653.503906 310.78125 653.21875 310.78125 " fill-opacity="1" fill-rule="nonzero"/><path fill="#ffde59" d="M 616.910156 445.269531 C 616.378906 445.269531 615.996094 444.8125 616.054688 444.242188 L 616.074219 443.863281 C 616.128906 443.253906 616.605469 442.71875 617.175781 442.679688 L 617.234375 442.679688 C 617.75 442.679688 618.128906 443.136719 618.089844 443.726562 L 618.054688 444.089844 C 618.015625 444.71875 617.519531 445.234375 616.96875 445.269531 L 616.910156 445.269531 " fill-opacity="1" fill-rule="nonzero"/><path fill="#ffde59" d="M 614.207031 449.785156 C 613.597656 449.785156 613.15625 449.273438 613.214844 448.585938 C 613.273438 447.863281 613.84375 447.234375 614.492188 447.195312 C 614.96875 447.15625 615.195312 447.136719 615.652344 447.101562 L 615.730469 447.101562 C 616.339844 447.101562 616.777344 447.632812 616.71875 448.320312 C 616.664062 449.023438 616.074219 449.652344 615.425781 449.691406 L 614.28125 449.785156 L 614.207031 449.785156 " fill-opacity="1" fill-rule="nonzero"/></svg>